<svg width="30" height="40" viewBox="0 0 30 40" fill="none" xmlns="http://www.w3.org/2000/svg">
<path d="M27.0364 38.9811C27.026 39.5333 27.4651 39.9894 28.0173 39.9998C28.5695 40.0103 29.0256 39.5711 29.0361 39.0189L27.0364 38.9811ZM0.60743 6.60323C0.205978 6.98251 0.188007 7.61542 0.567289 8.01687L6.74805 14.5589C7.12733 14.9604 7.76024 14.9783 8.16169 14.599C8.56314 14.2198 8.58112 13.5869 8.20183 13.1854L2.70783 7.37026L8.52297 1.87625C8.92442 1.49697 8.94239 0.864062 8.56311 0.462611C8.18383 0.0611568 7.55092 0.0431855 7.14947 0.422468L0.60743 6.60323ZM28.0363 39C29.0361 39.0189 29.0361 39.0185 29.0361 39.018C29.0361 39.0179 29.0361 39.0174 29.0361 39.017C29.0361 39.0162 29.0361 39.0153 29.0362 39.0143C29.0362 39.0122 29.0362 39.0096 29.0363 39.0066C29.0363 39.0005 29.0364 38.9923 29.0365 38.9822C29.0366 38.962 29.0367 38.9339 29.0364 38.898C29.0359 38.8261 29.0343 38.7232 29.0298 38.5903C29.0209 38.3246 29.0008 37.9392 28.9561 37.4439C28.8668 36.4533 28.6794 35.0228 28.2876 33.2304C27.5038 29.6447 25.9028 24.6134 22.6368 18.761L20.8903 19.7356C24.0529 25.4026 25.5883 30.2471 26.3337 33.6575C26.7065 35.363 26.8819 36.7106 26.9642 37.6235C27.0054 38.08 27.0233 38.4278 27.031 38.6572C27.0348 38.772 27.0361 38.8571 27.0365 38.9115C27.0366 38.9387 27.0366 38.9582 27.0365 38.9698C27.0365 38.9757 27.0364 38.9795 27.0364 38.9814C27.0364 38.9823 27.0364 38.9828 27.0364 38.9827C27.0364 38.9827 27.0364 38.9825 27.0364 38.9823C27.0364 38.9821 27.0364 38.9818 27.0364 38.9818C27.0364 38.9814 27.0364 38.9811 28.0363 39ZM22.6368 18.761C19.2655 12.7199 13.9077 9.61702 9.45429 8.02759C7.22481 7.23187 5.20483 6.80869 3.74016 6.58397C3.00701 6.47149 2.4107 6.40838 1.994 6.37328C1.78558 6.35572 1.62189 6.34515 1.50826 6.33891C1.45144 6.33579 1.40711 6.33376 1.37594 6.33247C1.36036 6.33182 1.34807 6.33137 1.33914 6.33106C1.33468 6.3309 1.33106 6.33078 1.3283 6.3307C1.32691 6.33065 1.32574 6.33062 1.32479 6.33059C1.32431 6.33057 1.32375 6.33056 1.32352 6.33055C1.32301 6.33054 1.32257 6.33052 1.29418 7.33012C1.2658 8.32972 1.26546 8.32971 1.26517 8.3297C1.26514 8.3297 1.26491 8.32969 1.26486 8.32969C1.26476 8.32969 1.26487 8.32969 1.26519 8.3297C1.26583 8.32972 1.26731 8.32977 1.26962 8.32985C1.27425 8.33001 1.28219 8.3303 1.29337 8.33076C1.31573 8.33169 1.35103 8.33329 1.39861 8.3359C1.49379 8.34113 1.63804 8.35038 1.82611 8.36622C2.20237 8.39792 2.75323 8.45596 3.43685 8.56084C4.80573 8.77086 6.69773 9.16732 8.78202 9.91121C12.9562 11.401 17.8331 14.2572 20.8903 19.7356L22.6368 18.761Z" fill="white"/>
</svg>
