<svg width="20" height="36" viewBox="0 0 20 36" fill="none" xmlns="http://www.w3.org/2000/svg">
<path d="M0.300247 1.09051C0.250261 0.540491 0.655616 0.0540903 1.20563 0.00410456C1.75565 -0.0458812 2.24205 0.359474 2.29204 0.909492L0.300247 1.09051ZM17.1632 34.7822C17.0074 35.312 16.4516 35.6152 15.9217 35.4594L7.28725 32.9205C6.75739 32.7647 6.45416 32.2089 6.60997 31.679C6.76577 31.1492 7.3216 30.8459 7.85145 31.0017L15.5265 33.2586L17.7833 25.5835C17.9391 25.0536 18.495 24.7504 19.0248 24.9062C19.5547 25.062 19.8579 25.6178 19.7021 26.1477L17.1632 34.7822ZM2.29204 0.909492C2.44485 2.59092 3.4001 5.4789 4.83481 8.98034C6.25204 12.4391 8.08372 16.3729 9.90077 20.0886C11.7167 23.802 13.5124 27.2861 14.8546 29.8425C15.5255 31.1205 16.0827 32.166 16.472 32.8917C16.6667 33.2545 16.8193 33.5373 16.9232 33.7292C16.9752 33.8251 17.0149 33.8984 17.0416 33.9475C17.0549 33.972 17.065 33.9906 17.0717 34.0029C17.0751 34.0091 17.0776 34.0137 17.0793 34.0167C17.0801 34.0183 17.0807 34.0194 17.0811 34.0201C17.0813 34.0205 17.0815 34.0207 17.0816 34.0209C17.0816 34.0211 17.0817 34.0211 16.2038 34.5001C15.3259 34.979 15.3259 34.9788 15.3257 34.9786C15.3256 34.9784 15.3254 34.978 15.3252 34.9776C15.3247 34.9767 15.3241 34.9755 15.3232 34.9739C15.3214 34.9706 15.3187 34.9657 15.3152 34.9593C15.3083 34.9465 15.2979 34.9275 15.2843 34.9025C15.2571 34.8524 15.2168 34.7782 15.1643 34.6812C15.0594 34.4873 14.9056 34.2023 14.7097 33.8372C14.3179 33.107 13.7578 32.0561 13.0838 30.7722C11.7359 28.2049 9.93094 24.7029 8.10409 20.9672C6.27838 17.2338 4.42522 13.2556 2.98415 9.73865C1.56056 6.26436 0.484045 3.11291 0.300247 1.09051L2.29204 0.909492Z" fill="white"/>
</svg>
