<svg width="140" height="40" viewBox="0 0 140 40" fill="none" xmlns="http://www.w3.org/2000/svg">
<path d="M56.8802 5.09521H54.5107V16.451H56.8802V5.09521Z" fill="#000D3C"/>
<path d="M58.5786 16.4518V8.0271H60.7901V9.55408H60.8428C61.0183 9.04509 61.3166 8.62385 61.7554 8.32548C62.1767 8.0271 62.6857 7.86914 63.2473 7.86914C63.8616 7.86914 64.3706 8.0271 64.7743 8.32548C65.178 8.62385 65.4588 9.04509 65.5992 9.60674H65.6519C65.8449 9.08019 66.1609 8.65896 66.6347 8.34303C67.1086 8.0271 67.6527 7.86914 68.267 7.86914C69.092 7.86914 69.7589 8.13241 70.2679 8.64141C70.7769 9.16795 71.0226 9.85246 71.0226 10.6949V16.4518H68.7234V11.2741C68.7234 10.7827 68.6005 10.4141 68.3723 10.1508C68.1442 9.88756 67.7931 9.7647 67.3544 9.7647C66.9156 9.7647 66.5645 9.90511 66.3013 10.2035C66.038 10.4843 65.9151 10.8704 65.9151 11.3443V16.4694H63.7036V11.2039C63.7036 10.7476 63.5808 10.3966 63.3351 10.1508C63.0893 9.88756 62.7559 9.7647 62.3346 9.7647C61.8958 9.7647 61.5448 9.92266 61.2815 10.221C61.0183 10.5194 60.8779 10.9055 60.8779 11.3794V16.4694H58.5786V16.4518Z" fill="#000D3C"/>
<path d="M78.8512 8.60576C78.2018 8.09677 77.3418 7.8335 76.2536 7.8335C75.1479 7.8335 74.2703 8.07922 73.6033 8.58821C72.9364 9.0972 72.5854 9.76416 72.5502 10.5891H74.6564C74.7091 10.2732 74.867 10.0099 75.1303 9.83437C75.3936 9.6413 75.7446 9.55354 76.1659 9.55354C76.6046 9.55354 76.9381 9.65885 77.2014 9.88702C77.4647 10.0976 77.5875 10.4136 77.5875 10.7997V11.3613L75.4638 11.4842C74.4107 11.5544 73.6033 11.8001 73.0417 12.2214C72.48 12.6426 72.1992 13.2569 72.1992 14.0292C72.1992 14.7839 72.4625 15.3982 73.0066 15.8721C73.5507 16.346 74.2176 16.5917 75.025 16.5917C75.5691 16.5917 76.0781 16.4688 76.552 16.2056C77.0259 15.9423 77.3769 15.5913 77.6051 15.1525H77.6577V16.4513H79.8692V10.6593C79.8166 9.79926 79.5006 9.11475 78.8512 8.60576ZM77.57 13.3622C77.57 13.8186 77.3945 14.1871 77.0434 14.4855C76.6924 14.7839 76.2536 14.9243 75.7622 14.9243C75.376 14.9243 75.0601 14.8365 74.8144 14.6435C74.5862 14.4504 74.4634 14.2047 74.4634 13.8888C74.4634 13.5904 74.5862 13.3447 74.8144 13.1691C75.0426 12.9761 75.376 12.8708 75.8148 12.8532L77.5875 12.7479V13.3622H77.57Z" fill="#000D3C"/>
<path d="M87.1021 8.00955V9.48388H87.067C86.8388 8.99243 86.5053 8.6063 86.049 8.30793C85.5927 8.0271 85.0661 7.86914 84.4694 7.86914C83.3987 7.86914 82.5563 8.25527 81.942 9.02754C81.3276 9.7998 81.0117 10.8529 81.0117 12.1868C81.0117 13.4856 81.3276 14.5212 81.942 15.2759C82.5738 16.0306 83.3987 16.4167 84.4343 16.4167C85.031 16.4167 85.5751 16.2763 86.0314 16.013C86.5053 15.7322 86.8388 15.3636 87.0319 14.9073H87.0845V16.3816C87.0845 16.873 86.9266 17.2767 86.5931 17.5751C86.2772 17.8735 85.8208 18.0314 85.2241 18.0314C84.8028 18.0314 84.4167 17.9437 84.1008 17.7506C83.7849 17.5751 83.5918 17.3294 83.504 17.0486H81.2574C81.3452 17.8033 81.7489 18.4351 82.4509 18.909C83.153 19.4005 84.0657 19.6286 85.1539 19.6286C86.4176 19.6286 87.4356 19.3303 88.2078 18.7335C88.9801 18.1368 89.3662 17.3294 89.3662 16.329V8.00955H87.1021ZM86.5755 14.0122C86.2421 14.4334 85.7857 14.6616 85.2065 14.6616C84.6449 14.6616 84.1885 14.4509 83.8551 14.0122C83.5216 13.5734 83.3636 12.9766 83.3636 12.2219C83.3636 11.4496 83.5216 10.8529 83.8551 10.4141C84.1885 9.95777 84.6449 9.7296 85.2065 9.7296C85.7857 9.7296 86.2421 9.95777 86.5755 10.4141C86.909 10.8704 87.0845 11.4672 87.0845 12.2219C87.0845 12.9766 86.909 13.5734 86.5755 14.0122Z" fill="#000D3C"/>
<path d="M93.2094 8.00977H90.9102V16.4345H93.2094V8.00977Z" fill="#000D3C"/>
<path d="M92.928 6.74593C92.6998 6.9741 92.4014 7.09696 92.0504 7.09696C91.6994 7.09696 91.4185 6.9741 91.1728 6.74593C90.9446 6.51776 90.8218 6.23694 90.8218 5.90346C90.8218 5.56998 90.9446 5.28916 91.1728 5.06099C91.401 4.83282 91.6994 4.70996 92.0504 4.70996C92.4014 4.70996 92.6822 4.83282 92.928 5.06099C93.1561 5.28916 93.279 5.56998 93.279 5.90346C93.2965 6.23694 93.1737 6.51776 92.928 6.74593Z" fill="#000D3C"/>
<path d="M94.7349 16.4518V8.0271H96.9463V9.53653H96.999C97.2272 9.00999 97.5606 8.58875 97.9994 8.30793C98.4382 8.0271 98.9823 7.86914 99.6317 7.86914C100.562 7.86914 101.282 8.14996 101.791 8.71161C102.3 9.27326 102.545 10.0455 102.545 11.0284V16.4694H100.246V11.5023C100.246 10.9406 100.123 10.5194 99.8599 10.221C99.5966 9.92266 99.2105 9.7647 98.7015 9.7647C98.1925 9.7647 97.7888 9.94021 97.4729 10.2737C97.1745 10.6072 97.0166 11.0635 97.0166 11.6076V16.4518H94.7349Z" fill="#000D3C"/>
<path d="M110.392 8.60576C109.742 8.09677 108.882 7.8335 107.794 7.8335C106.688 7.8335 105.811 8.07922 105.144 8.58821C104.477 9.0972 104.126 9.76416 104.073 10.5891H106.179C106.232 10.2732 106.39 10.0099 106.653 9.83437C106.917 9.6413 107.268 9.55354 107.689 9.55354C108.128 9.55354 108.461 9.65885 108.724 9.88702C108.988 10.0976 109.11 10.4136 109.11 10.7997V11.3613L106.987 11.4842C105.934 11.5544 105.126 11.8001 104.547 12.2214C103.968 12.6426 103.705 13.2569 103.705 14.0292C103.705 14.7839 103.968 15.3982 104.512 15.8721C105.056 16.346 105.723 16.5917 106.53 16.5917C107.074 16.5917 107.583 16.4688 108.057 16.2056C108.531 15.9423 108.882 15.5913 109.11 15.1525H109.163V16.4513H111.375V10.6593C111.357 9.79926 111.041 9.11475 110.392 8.60576ZM109.11 13.3622C109.11 13.8186 108.935 14.1871 108.584 14.4855C108.233 14.7839 107.794 14.9243 107.303 14.9243C106.917 14.9243 106.601 14.8365 106.355 14.6435C106.127 14.4504 106.004 14.2047 106.004 13.8888C106.004 13.5904 106.127 13.3447 106.355 13.1691C106.583 12.9761 106.917 12.8708 107.355 12.8532L109.128 12.7479V13.3622H109.11Z" fill="#000D3C"/>
<path d="M113.464 6.07812H115.763V8.02634H117.325V9.76394H115.763V13.8008C115.763 14.4326 116.096 14.7486 116.746 14.7486C116.956 14.7486 117.149 14.731 117.307 14.7135V16.3984C117.044 16.4686 116.675 16.4862 116.219 16.4862C115.236 16.4862 114.517 16.3106 114.095 15.9596C113.674 15.6086 113.464 15.0118 113.464 14.1869V9.74638H112.27V8.00879H113.464V6.07812Z" fill="#000D3C"/>
<path d="M120.922 8.00977H118.623V16.4345H120.922V8.00977Z" fill="#000D3C"/>
<path d="M120.64 6.74593C120.412 6.9741 120.114 7.09696 119.763 7.09696C119.412 7.09696 119.131 6.9741 118.885 6.74593C118.657 6.51776 118.534 6.23694 118.534 5.90346C118.534 5.56998 118.657 5.28916 118.885 5.06099C119.113 4.83282 119.412 4.70996 119.763 4.70996C120.114 4.70996 120.395 4.83282 120.64 5.06099C120.869 5.28916 120.991 5.56998 120.991 5.90346C120.991 6.23694 120.869 6.51776 120.64 6.74593Z" fill="#000D3C"/>
<path d="M129.366 9.00945C128.611 8.21963 127.593 7.8335 126.312 7.8335C125.048 7.8335 124.03 8.21963 123.276 9.00945C122.521 9.79926 122.135 10.8524 122.135 12.2214C122.135 13.5904 122.503 14.6786 123.258 15.4508C124.013 16.2231 125.031 16.6268 126.312 16.6268C127.593 16.6268 128.611 16.2407 129.366 15.4684C130.121 14.6961 130.489 13.6079 130.489 12.2214C130.489 10.8699 130.121 9.79926 129.366 9.00945ZM127.663 14.1871C127.33 14.6435 126.891 14.8892 126.312 14.8892C125.75 14.8892 125.294 14.661 124.961 14.1871C124.627 13.7308 124.469 13.0814 124.469 12.2389C124.469 11.414 124.627 10.7646 124.961 10.2907C125.294 9.81681 125.75 9.58865 126.312 9.58865C126.874 9.58865 127.33 9.81681 127.663 10.2907C127.997 10.7646 128.155 11.414 128.155 12.2389C128.155 13.0638 127.997 13.7132 127.663 14.1871Z" fill="#000D3C"/>
<path d="M131.685 16.4518V8.0271H133.897V9.53653H133.949C134.177 9.00999 134.511 8.58875 134.95 8.30793C135.388 8.0271 135.933 7.86914 136.582 7.86914C137.512 7.86914 138.232 8.14996 138.741 8.71161C139.25 9.27326 139.495 10.0455 139.495 11.0284V16.4694H137.196V11.5023C137.196 10.9406 137.073 10.5194 136.81 10.221C136.547 9.92266 136.161 9.7647 135.652 9.7647C135.143 9.7647 134.739 9.94021 134.423 10.2737C134.125 10.6072 133.967 11.0635 133.967 11.6076V16.4518H131.685Z" fill="#000D3C"/>
<path d="M54.0874 29.5101H55.158C55.2107 30.1946 55.5442 30.7387 56.1234 31.1775C56.7026 31.5988 57.4397 31.8094 58.3349 31.8094C59.1773 31.8094 59.8794 31.5988 60.4235 31.1951C60.9676 30.7738 61.2484 30.2473 61.2484 29.6154C61.2484 29.0889 61.0553 28.6501 60.6692 28.3342C60.2831 28.0007 59.6688 27.7199 58.8263 27.5093L57.4222 27.1407C56.3691 26.8774 55.5968 26.5088 55.1054 26.0349C54.6315 25.5611 54.3858 24.9643 54.3858 24.2096C54.3858 23.2969 54.7544 22.5422 55.4915 21.963C56.2287 21.3662 57.1589 21.0679 58.2822 21.0679C59.3879 21.0679 60.3006 21.3662 61.0202 21.9454C61.7574 22.5246 62.1435 23.2618 62.1611 24.1745H61.0904C61.0378 23.5426 60.757 23.0161 60.2304 22.63C59.7039 22.2438 59.0545 22.0332 58.2471 22.0332C57.4573 22.0332 56.8079 22.2263 56.2813 22.63C55.7723 23.0161 55.5091 23.5251 55.5091 24.1569C55.5091 24.6484 55.7021 25.0345 56.0707 25.3504C56.4393 25.6488 57.0536 25.9121 57.8961 26.1227L59.1247 26.4386C60.2655 26.7194 61.0904 27.1056 61.5994 27.5795C62.1084 28.0534 62.3542 28.6852 62.3542 29.475C62.3542 30.4755 61.9856 31.2653 61.2309 31.8796C60.4937 32.4763 59.4933 32.7747 58.2296 32.7747C57.0361 32.7747 56.0707 32.4763 55.2985 31.8796C54.5437 31.2828 54.1401 30.493 54.0874 29.5101Z" fill="#000D3C"/>
<path d="M70.1667 25.4382C69.5348 24.6659 68.6923 24.2798 67.6568 24.2798C67.0074 24.2798 66.4282 24.4553 65.9367 24.8063C65.4453 25.1398 65.0767 25.5961 64.8486 26.1578H64.8135V24.4202H63.8306V35.3021H64.8661V30.9142H64.9012C65.1294 31.4583 65.4804 31.8971 65.9718 32.2306C66.4633 32.5641 67.0425 32.722 67.6919 32.722C68.7274 32.722 69.5524 32.3359 70.1842 31.5637C70.8161 30.7914 71.1495 29.7734 71.1495 28.4921C71.1495 27.2109 70.7985 26.2104 70.1667 25.4382ZM69.3593 30.9142C68.8854 31.511 68.2535 31.8094 67.4637 31.8094C66.6915 31.8094 66.0596 31.511 65.5682 30.8967C65.0767 30.2824 64.8486 29.4926 64.8486 28.5097C64.8486 27.5268 65.0943 26.737 65.5682 26.1227C66.0421 25.5084 66.6739 25.21 67.4637 25.21C68.2535 25.21 68.8854 25.5084 69.3593 26.1227C69.8332 26.7194 70.0789 27.5268 70.0789 28.5272C70.0613 29.5101 69.8332 30.3175 69.3593 30.9142Z" fill="#000D3C"/>
<path d="M79.3094 28.7554V28.3166C79.3094 27.088 78.9935 26.1227 78.3441 25.3855C77.7122 24.6484 76.8522 24.2798 75.764 24.2798C74.6582 24.2798 73.7807 24.6659 73.1137 25.4557C72.4468 26.228 72.1133 27.2635 72.1133 28.5272C72.1133 29.8261 72.4468 30.844 73.1137 31.5988C73.7807 32.3535 74.6933 32.722 75.8342 32.722C76.7293 32.722 77.484 32.4939 78.0983 32.0375C78.7126 31.5812 79.0988 30.9845 79.2216 30.2648H78.1861C78.0808 30.7212 77.8 31.1073 77.3963 31.3881C76.975 31.669 76.466 31.8094 75.8693 31.8094C75.0444 31.8094 74.395 31.5461 73.9211 31.002C73.4296 30.4579 73.2015 29.7383 73.2015 28.8081V28.7554H79.3094ZM73.9562 25.9647C74.4301 25.4557 75.0268 25.21 75.764 25.21C76.5011 25.21 77.0979 25.4733 77.5542 25.9647C78.0106 26.4737 78.2387 27.1231 78.2563 27.9305H73.2015C73.2366 27.1231 73.4823 26.4562 73.9562 25.9647Z" fill="#000D3C"/>
<path d="M87.3672 27.0003H86.3492C86.2264 26.4737 85.9631 26.0349 85.5594 25.7015C85.1557 25.368 84.6292 25.1925 84.0149 25.1925C83.2075 25.1925 82.5757 25.4908 82.0842 26.0876C81.6103 26.6843 81.3646 27.4917 81.3646 28.4921C81.3646 29.5101 81.6103 30.3175 82.0842 30.9142C82.5581 31.511 83.2075 31.8094 84.0149 31.8094C84.6292 31.8094 85.1382 31.6514 85.5419 31.3355C85.9631 31.0196 86.2264 30.5983 86.3492 30.0542H87.3848C87.2619 30.844 86.9109 31.4759 86.279 31.9849C85.6647 32.4763 84.91 32.722 84.0149 32.722C82.8916 32.722 81.9965 32.3359 81.312 31.5812C80.645 30.8265 80.3115 29.791 80.3115 28.4921C80.3115 27.2109 80.645 26.1753 81.312 25.4206C81.9965 24.6484 82.8916 24.2798 83.9973 24.2798C84.9276 24.2798 85.6823 24.5431 86.2966 25.0696C86.8933 25.5961 87.2619 26.2456 87.3672 27.0003Z" fill="#000D3C"/>
<path d="M89.1197 22.3667H90.1553V24.4202H91.77V25.2802H90.1553V30.5281C90.1553 30.9494 90.243 31.2477 90.4186 31.4408C90.5941 31.6339 90.8749 31.7216 91.2435 31.7216C91.5418 31.7216 91.7174 31.7041 91.8051 31.6865V32.5817C91.6647 32.6168 91.4014 32.6343 91.0329 32.6343C90.3484 32.6343 89.8569 32.4763 89.5585 32.1604C89.2602 31.8445 89.1197 31.318 89.1197 30.5632V25.2627H87.9087V24.4027H89.1197V22.3667Z" fill="#000D3C"/>
<path d="M93.2427 32.5987V24.4197H94.2256V25.8765H94.2431C94.4011 25.3851 94.6468 24.9814 95.0154 24.7181C95.384 24.4373 95.8052 24.2969 96.3142 24.2969C96.5073 24.2969 96.7354 24.332 96.9636 24.3846V25.4026C96.7881 25.3324 96.5424 25.2798 96.1913 25.2798C95.6121 25.2798 95.1558 25.4904 94.8048 25.8941C94.4537 26.2977 94.2782 26.8418 94.2782 27.5088V32.5987H93.2427Z" fill="#000D3C"/>
<path d="M104.652 24.4199V32.5989H103.669V31.0895H103.651C103.423 31.5985 103.09 32.0022 102.598 32.3005C102.124 32.5989 101.563 32.7393 100.931 32.7393C100.053 32.7393 99.3335 32.4761 98.8245 31.932C98.298 31.3879 98.0522 30.6683 98.0522 29.738V24.4199H99.1053V29.5625C99.1053 30.2821 99.2808 30.8438 99.6494 31.2299C100.018 31.616 100.545 31.8091 101.247 31.8091C101.966 31.8091 102.528 31.5809 102.967 31.1246C103.405 30.6682 103.634 30.0539 103.634 29.2817V24.4199H104.652Z" fill="#000D3C"/>
<path d="M106.444 32.5992V24.4202H107.427V25.9296H107.444C107.62 25.4382 107.918 25.0345 108.339 24.7361C108.761 24.4377 109.252 24.2798 109.831 24.2798C110.41 24.2798 110.919 24.4377 111.341 24.7537C111.762 25.0696 112.043 25.4733 112.201 25.9998H112.218C112.411 25.4908 112.745 25.0696 113.201 24.7537C113.658 24.4377 114.202 24.2798 114.798 24.2798C115.588 24.2798 116.238 24.5255 116.711 25.0345C117.185 25.5259 117.431 26.1929 117.431 27.0003V32.5992H116.413V27.246C116.413 26.6141 116.238 26.1227 115.904 25.7541C115.571 25.3855 115.097 25.21 114.518 25.21C113.921 25.21 113.429 25.4206 113.043 25.8419C112.657 26.2631 112.482 26.7896 112.482 27.4391V32.5992H111.428V27.1407C111.428 26.5615 111.253 26.0876 110.902 25.7366C110.568 25.3855 110.112 25.21 109.55 25.21C108.954 25.21 108.445 25.4382 108.059 25.877C107.672 26.3158 107.479 26.8774 107.479 27.5795V32.5992H106.444Z" fill="#000D3C"/>
<path d="M30.4354 0.280439C32.7171 -0.0530396 32.8399 0.0873722 32.7873 0.280439C29.6631 5.03689 21.607 10.8464 16.4293 13.2334C15.6395 13.602 14.8145 13.8828 13.9721 14.0935C12.0765 14.5498 9.88258 15.3572 6.91638 15.5853C5.79308 15.6731 4.74 15.6906 3.89752 15.5678C2.30034 15.3572 0.861117 14.3567 0.264367 12.742C0.0186464 12.0575 -0.0515596 11.3554 0.0361978 10.6709C0.246816 9.12639 1.28235 7.73982 2.84443 7.16062C5.10858 6.3357 10.532 5.52833 16.4644 3.93115C22.5723 2.29886 28.4345 0.666571 30.2247 0.315542C30.2247 0.315542 30.2247 0.315542 30.4354 0.280439Z" fill="url(#paint0_linear)"/>
<path d="M30.4354 0.280439C32.7171 -0.0530396 32.8399 0.0873722 32.7873 0.280439C29.6631 5.03689 21.607 10.8464 16.4293 13.2334C15.6395 13.602 14.8145 13.8828 13.9721 14.0935C12.0765 14.5498 9.88258 15.3572 6.91638 15.5853C5.79308 15.6731 4.74 15.6906 3.89752 15.5678C2.30034 15.3572 0.861117 14.3567 0.264367 12.742C0.0186464 12.0575 -0.0515596 11.3554 0.0361978 10.6709C0.246816 9.12639 1.28235 7.73982 2.84443 7.16062C5.10858 6.3357 10.532 5.52833 16.4644 3.93115C22.5723 2.29886 28.4345 0.666571 30.2247 0.315542C30.2247 0.315542 30.2247 0.315542 30.4354 0.280439Z" fill="url(#paint1_radial)"/>
<path d="M30.4354 0.280439C32.7171 -0.0530396 32.8399 0.0873722 32.7873 0.280439C29.6631 5.03689 21.607 10.8464 16.4293 13.2334C15.6395 13.602 14.8145 13.8828 13.9721 14.0935C12.0765 14.5498 9.88258 15.3572 6.91638 15.5853C5.79308 15.6731 4.74 15.6906 3.89752 15.5678C2.30034 15.3572 0.861117 14.3567 0.264367 12.742C0.0186464 12.0575 -0.0515596 11.3554 0.0361978 10.6709C0.246816 9.12639 1.28235 7.73982 2.84443 7.16062C5.10858 6.3357 10.532 5.52833 16.4644 3.93115C22.5723 2.29886 28.4345 0.666571 30.2247 0.315542C30.2247 0.315542 30.2247 0.315542 30.4354 0.280439Z" fill="url(#paint2_radial)"/>
<path d="M30.4354 0.280439C32.7171 -0.0530396 32.8399 0.0873722 32.7873 0.280439C29.6631 5.03689 21.607 10.8464 16.4293 13.2334C15.6395 13.602 14.8145 13.8828 13.9721 14.0935C12.0765 14.5498 9.88258 15.3572 6.91638 15.5853C5.79308 15.6731 4.74 15.6906 3.89752 15.5678C2.30034 15.3572 0.861117 14.3567 0.264367 12.742C0.0186464 12.0575 -0.0515596 11.3554 0.0361978 10.6709C0.246816 9.12639 1.28235 7.73982 2.84443 7.16062C5.10858 6.3357 10.532 5.52833 16.4644 3.93115C22.5723 2.29886 28.4345 0.666571 30.2247 0.315542C30.2247 0.315542 30.2247 0.315542 30.4354 0.280439Z" fill="url(#paint3_radial)"/>
<path d="M41.3352 37.7712C39.6152 38.3855 37.9127 38.3504 34.9289 38.7892C32.3664 39.1578 28.7508 39.9827 27.1536 39.9827C25.5564 39.9827 38.8605 31.4702 38.8605 31.4702C41.1948 31.4702 41.8793 31.9441 42.5814 32.6462C43.2834 33.3482 43.4063 34.4013 43.4063 34.7523C43.4063 35.1034 43.2659 37.0867 41.3352 37.7712Z" fill="url(#paint4_radial)"/>
<path d="M41.3352 37.7712C39.6152 38.3855 37.9127 38.3504 34.9289 38.7892C32.3664 39.1578 28.7508 39.9827 27.1536 39.9827C25.5564 39.9827 38.8605 31.4702 38.8605 31.4702C41.1948 31.4702 41.8793 31.9441 42.5814 32.6462C43.2834 33.3482 43.4063 34.4013 43.4063 34.7523C43.4063 35.1034 43.2659 37.0867 41.3352 37.7712Z" fill="url(#paint5_radial)"/>
<path d="M40.9672 26.0815C41.0374 29.5392 38.6328 32.0666 35.5613 34.7344C32.6829 37.2267 29.1375 39.4031 28.9444 39.526C28.4003 39.8244 27.7684 39.9823 27.119 39.9823C24.9426 39.9823 23.1875 38.2272 23.1875 36.0508C23.1875 35.3838 23.363 34.752 23.6614 34.1903C23.9598 33.6462 24.381 33.1723 24.89 32.8038C24.89 32.8038 24.89 32.8038 24.9075 32.7862C24.9251 32.7687 24.9426 32.7687 24.9602 32.7511C25.5921 32.3474 30.2783 29.311 32.2265 27.3628L35.8532 24.8399L40.6337 24.1509C40.8443 24.7827 40.9672 25.4321 40.9672 26.0815Z" fill="url(#paint6_linear)"/>
<path d="M40.5986 24.1508L32.1915 27.3627L31.5421 27.4154C27.1717 27.8542 22.9594 29.1354 18.6242 30.0657C17.9046 30.2236 17.185 30.364 16.4653 30.4869L16.4127 30.5044C16.3776 30.5044 16.3425 30.522 16.3249 30.522C15.4474 30.68 14.5873 30.8204 13.6922 30.9081C13.622 30.9257 13.5518 30.9257 13.4816 30.9257C12.2881 31.0661 11.077 31.1363 9.84843 31.1363C5.32015 31.1363 3.28418 27.784 3.28418 25.3092L18.6944 21.2373C18.6944 21.2373 18.6944 21.2373 18.7119 21.2373C21.0463 20.7634 25.4868 20.0087 29.4534 19.7103C29.471 19.7103 29.4885 19.7103 29.4885 19.7103C31.2963 19.5699 33.0164 19.5348 34.403 19.6576C37.5096 19.9385 39.7737 21.9042 40.5986 24.1508Z" fill="url(#paint7_linear)"/>
<path d="M36.4214 10.2496C33.8764 12.6542 22.8892 18.1829 18.6944 21.2544L3.28418 25.3263C3.28418 21.5528 5.89935 17.8494 11.7264 13.7775C18.6066 8.9508 30.4539 1.73714 30.4539 1.73714C32.1915 0.719149 32.876 -0.000461664 30.4539 0.280362C31.4543 0.104847 32.3845 0.0170898 33.2095 0.0170898H33.2446C34.7189 0.0170898 36.1406 0.61384 37.5096 1.98286C38.8961 3.35187 39.8088 7.05523 36.4214 10.2496Z" fill="url(#paint8_linear)"/>
<path d="M37.5255 1.98332C36.1389 0.614302 34.7348 0.0175515 33.2429 0H33.2078C32.3829 0 31.4527 0.105309 30.4522 0.263272C30.4522 0.263272 30.4522 0.263272 30.4698 0.263272C30.4698 0.263272 30.4698 0.263272 30.4522 0.263272C30.2241 0.298375 30.2241 0.298375 30.2241 0.298375C28.4514 0.649405 22.5892 2.28169 16.4637 3.91398C13.9012 4.59849 11.4264 5.14258 9.26758 5.59892C13.7081 10.1623 19.0613 13.9183 24.2916 17.7094C29.0306 14.9363 34.6646 11.8648 36.4022 10.2325C39.8072 7.0557 38.8945 3.35233 37.5255 1.98332Z" fill="url(#paint9_radial)"/>
<path d="M36.4214 10.2501C33.8764 12.6546 22.8892 18.1833 18.6944 21.2548C11.9897 25.4497 10.7085 27.5207 10.7085 29.1004C10.7085 30.3992 12.5689 31.1363 15.5 30.6624C14.9033 30.7678 14.3065 30.838 13.6922 30.9082C13.622 30.9257 13.5518 30.9257 13.4816 30.9257C12.2881 31.0661 11.077 31.1363 9.84843 31.1363C5.32015 31.1363 3.28418 27.784 3.28418 25.3092C3.28418 21.5357 5.89935 17.8323 11.7264 13.7604C18.6066 8.93371 30.4539 1.72005 30.4539 1.72005C32.1915 0.702059 32.876 -0.0175515 30.4539 0.263272C31.4543 0.0877574 32.3845 0 33.2095 0H33.2446C34.7189 0 36.1406 0.59675 37.5096 1.96577C38.8961 3.35233 39.8088 7.0557 36.4214 10.2501Z" fill="url(#paint10_radial)"/>
<path d="M36.4214 10.2501C33.8764 12.6546 22.8892 18.1833 18.6944 21.2548C11.9897 25.4497 10.7085 27.5207 10.7085 29.1004C10.7085 30.3992 12.5689 31.1363 15.5 30.6624C14.9033 30.7678 14.3065 30.838 13.6922 30.9082C13.622 30.9257 13.5518 30.9257 13.4816 30.9257C12.2881 31.0661 11.077 31.1363 9.84843 31.1363C5.32015 31.1363 3.28418 27.784 3.28418 25.3092C3.28418 21.5357 5.89935 17.8323 11.7264 13.7604C18.6066 8.93371 30.4539 1.72005 30.4539 1.72005C32.1915 0.702059 32.876 -0.0175515 30.4539 0.263272C31.4543 0.0877574 32.3845 0 33.2095 0H33.2446C34.7189 0 36.1406 0.59675 37.5096 1.96577C38.8961 3.35233 39.8088 7.0557 36.4214 10.2501Z" fill="url(#paint11_radial)"/>
<path d="M26.5228 19.9914C24.9081 20.1844 23.346 20.4126 21.8892 20.6583C21.7313 20.6759 21.5908 20.711 21.4329 20.7285C21.2925 20.7461 21.1521 20.7812 21.0116 20.7987C20.8361 20.8338 20.6782 20.8514 20.5202 20.8865C20.5026 20.8865 20.4851 20.8865 20.4675 20.9041C20.3798 20.9216 20.292 20.9392 20.1867 20.9567C20.0112 20.9918 19.8357 21.0269 19.6602 21.062C19.5724 21.0796 19.4847 21.0971 19.4145 21.1147C19.1687 21.1673 18.923 21.2024 18.6773 21.2551C20.4851 19.9387 23.5391 18.1485 26.6457 16.3758C24.5044 13.3745 21.2574 11.4965 18.6246 9.16211C16.1674 10.7417 13.7278 12.374 11.7094 13.7957C5.88226 17.8852 3.26709 21.5886 3.26709 25.3446C3.26709 27.8193 5.32061 31.1717 9.83134 31.1717C11.0599 31.1717 12.271 31.1015 13.4645 30.9611C13.5347 30.9611 13.6049 30.9435 13.6751 30.9435C14.2894 30.8733 14.8862 30.7855 15.4829 30.6978C15.5005 30.6978 15.518 30.6978 15.5356 30.6978C16.3078 30.5574 16.4483 30.5398 16.4483 30.5398C17.1679 30.417 17.905 30.259 18.6071 30.1186C21.2749 29.5394 23.8901 28.8373 26.5228 28.2757C36.2639 26.7838 36.0357 21.729 26.5228 19.9914Z" fill="url(#paint12_radial)"/>
<path d="M32.2081 27.3626C31.9975 27.3802 31.7693 27.3977 31.5587 27.4153C27.1884 27.854 22.976 29.1353 18.6408 30.0655C17.9212 30.2235 17.2016 30.3639 16.482 30.4868C16.482 30.4868 16.3415 30.5219 15.5693 30.6447C15.5517 30.6447 15.5342 30.6447 15.5166 30.6447C12.568 31.1537 10.7075 30.399 10.7075 29.1002C10.7075 27.5206 11.9888 25.4319 18.6934 21.2547C18.9392 21.202 19.1673 21.1669 19.4306 21.1143C19.5184 21.0967 19.5886 21.0792 19.6763 21.0616C19.8518 21.0265 20.0274 20.9914 20.2029 20.9563C20.2906 20.9388 20.3784 20.9212 20.4837 20.9037C20.5012 20.9037 20.5188 20.9037 20.5363 20.8861C20.6943 20.851 20.8698 20.8334 21.0278 20.7983C21.1682 20.7808 21.3086 20.7457 21.449 20.7281C21.607 20.693 21.7474 20.6755 21.9054 20.6579C24.2222 20.2542 26.8022 19.9032 29.4525 19.7102C29.4701 19.7102 29.4876 19.7102 29.4876 19.7102C32.875 19.4469 35.1392 20.3947 35.2269 22.0094C35.3147 23.5013 34.1036 25.4846 32.2081 27.3626Z" fill="url(#paint13_linear)"/>
<path d="M26.5228 19.9914C24.9081 20.1844 23.346 20.4126 21.8892 20.6583C21.7313 20.6759 21.5908 20.711 21.4329 20.7285C21.2925 20.7461 21.1521 20.7812 21.0116 20.7987C20.8361 20.8338 20.6782 20.8514 20.5202 20.8865C20.5026 20.8865 20.4851 20.8865 20.4675 20.9041C20.3798 20.9216 20.292 20.9392 20.1867 20.9567C20.0112 20.9918 19.8357 21.0269 19.6602 21.062C19.5724 21.0796 19.4847 21.0971 19.4145 21.1147C19.1687 21.1673 18.923 21.2024 18.6773 21.2551C20.4851 19.9387 23.5391 18.1485 26.6457 16.3758C24.5044 13.3745 21.2574 11.4965 18.6246 9.16211C16.1674 10.7417 13.7278 12.374 11.7094 13.7957C5.88226 17.8852 3.26709 21.5886 3.26709 25.3446C3.26709 27.8193 5.32061 31.1717 9.83134 31.1717C11.0599 31.1717 12.271 31.1015 13.4645 30.9611C13.5347 30.9611 13.6049 30.9435 13.6751 30.9435C14.2894 30.8733 14.8862 30.7855 15.4829 30.6978C15.5005 30.6978 15.518 30.6978 15.5356 30.6978C16.3078 30.5574 16.4483 30.5398 16.4483 30.5398C17.1679 30.417 17.905 30.259 18.6071 30.1186C21.2749 29.5394 23.8901 28.8373 26.5228 28.2757C36.2639 26.7838 36.0357 21.729 26.5228 19.9914Z" fill="url(#paint14_radial)"/>
<path d="M26.5228 19.9914C24.9081 20.1844 23.346 20.4126 21.8892 20.6583C21.7313 20.6759 21.5908 20.711 21.4329 20.7285C21.2925 20.7461 21.1521 20.7812 21.0116 20.7987C20.8361 20.8338 20.6782 20.8514 20.5202 20.8865C20.5026 20.8865 20.4851 20.8865 20.4675 20.9041C20.3798 20.9216 20.292 20.9392 20.1867 20.9567C20.0112 20.9918 19.8357 21.0269 19.6602 21.062C19.5724 21.0796 19.4847 21.0971 19.4145 21.1147C19.1687 21.1673 18.923 21.2024 18.6773 21.2551C20.4851 19.9387 23.5391 18.1485 26.6457 16.3758C24.5044 13.3745 21.2574 11.4965 18.6246 9.16211C16.1674 10.7417 13.7278 12.374 11.7094 13.7957C5.88226 17.8852 3.26709 21.5886 3.26709 25.3446C3.26709 27.8193 5.32061 31.1717 9.83134 31.1717C11.0599 31.1717 12.271 31.1015 13.4645 30.9611C13.5347 30.9611 13.6049 30.9435 13.6751 30.9435C14.2894 30.8733 14.8862 30.7855 15.4829 30.6978C15.5005 30.6978 15.518 30.6978 15.5356 30.6978C16.3078 30.5574 16.4483 30.5398 16.4483 30.5398C17.1679 30.417 17.905 30.259 18.6071 30.1186C21.2749 29.5394 23.8901 28.8373 26.5228 28.2757C36.2639 26.7838 36.0357 21.729 26.5228 19.9914Z" fill="url(#paint15_linear)"/>
<path d="M37.5255 1.98332C36.1389 0.614302 34.7348 0.0175515 33.2429 0H33.2078C32.3829 0 31.4527 0.105309 30.4522 0.263272C30.4522 0.263272 30.4522 0.263272 30.4698 0.263272C30.4698 0.263272 30.4698 0.263272 30.4522 0.263272C30.2241 0.298375 30.2241 0.298375 30.2241 0.298375C28.4514 0.649405 22.5892 2.28169 16.4637 3.91398C13.9012 4.59849 11.4264 5.14258 9.26758 5.59892C13.7081 10.1623 19.0613 13.9183 24.2916 17.7094C29.0306 14.9363 34.6646 11.8648 36.4022 10.2325C39.8072 7.0557 38.8945 3.35233 37.5255 1.98332Z" fill="url(#paint16_radial)"/>
<path d="M26.5228 19.9913C24.1358 20.2371 19.4847 21.0971 19.4145 21.0971C19.1687 21.1497 18.923 21.1848 18.6773 21.2375C20.4851 19.9211 23.5391 18.1309 26.6457 16.3582C24.5044 13.3569 21.2574 11.4789 18.6246 9.14453C16.1674 10.7242 13.7278 12.3565 11.7094 13.7781C5.88226 17.8676 3.26709 21.571 3.26709 25.327C3.26709 27.8018 5.32061 31.1541 9.83134 31.1541C11.0599 31.1541 12.271 31.0839 13.4645 30.9435C13.5347 30.9435 13.6049 30.9259 13.6751 30.9259C14.2894 30.8557 14.8862 30.768 15.4829 30.6802C15.5005 30.6802 15.518 30.6802 15.5356 30.6802C16.3078 30.5398 16.4483 30.5222 16.4483 30.5222C17.1679 30.3994 17.905 30.2414 18.6071 30.101C21.2749 29.5218 23.8901 28.8197 26.5228 28.2581C36.2639 26.7838 36.0357 21.7289 26.5228 19.9913Z" fill="url(#paint17_radial)"/>
<path d="M40.9685 26.0812C40.9685 25.4318 40.8456 24.7824 40.6175 24.1505C39.775 21.8864 37.5109 19.9382 34.4042 19.6573C33.0352 19.5345 31.3152 19.5871 29.4898 19.71C29.4723 19.71 29.4547 19.71 29.4547 19.71C28.4718 19.7802 27.489 19.8679 26.5412 19.9908C13.9392 21.0263 12.5351 26.8885 26.5587 28.2225C28.2086 27.8714 29.876 27.573 31.5609 27.4151C31.7715 27.3975 31.9997 27.3624 32.2103 27.3624C31.4205 28.1522 30.1568 29.1527 28.8931 30.0478C31.4205 31.5397 34.1059 32.3119 36.4227 33.9618C39.0729 31.5748 41.0212 29.2053 40.9685 26.0812Z" fill="url(#paint18_radial)"/>
<path d="M40.9685 26.0812C40.9685 25.4318 40.8456 24.7824 40.6175 24.1505C39.775 21.8864 37.5109 19.9382 34.4042 19.6573C33.0352 19.5345 31.3152 19.5871 29.4898 19.71C29.4723 19.71 29.4547 19.71 29.4547 19.71C28.4718 19.7802 27.489 19.8679 26.5412 19.9908C13.9392 21.0263 12.5351 26.8885 26.5587 28.2225C28.2086 27.8714 29.876 27.573 31.5609 27.4151C31.7715 27.3975 31.9997 27.3624 32.2103 27.3624C31.4205 28.1522 30.1568 29.1527 28.8931 30.0478C31.4205 31.5397 34.1059 32.3119 36.4227 33.9618C39.0729 31.5748 41.0212 29.2053 40.9685 26.0812Z" fill="url(#paint19_radial)"/>
<path d="M37.8082 32.6283C37.8258 32.6108 37.8433 32.5757 37.8784 32.5581C38.0013 32.4177 38.1417 32.2949 38.247 32.1544C38.247 32.1544 38.247 32.1544 38.2646 32.1369C38.6331 31.7332 38.9842 31.312 39.2826 30.8907C39.3177 30.8381 39.3703 30.7854 39.4054 30.7328C39.4756 30.645 39.5283 30.5397 39.5985 30.452C39.6511 30.3817 39.7038 30.3115 39.7389 30.2238C39.7915 30.136 39.8442 30.0483 39.8969 29.9605C39.9495 29.8728 39.9846 29.8026 40.0373 29.7148C40.0899 29.627 40.125 29.5393 40.1777 29.4515C40.2303 29.3638 40.2654 29.276 40.3005 29.1882C40.3356 29.1005 40.3707 29.0127 40.4058 28.925C40.4409 28.8372 40.4761 28.7319 40.5112 28.6442C40.5463 28.5564 40.5638 28.4686 40.5989 28.3809C40.634 28.2756 40.6691 28.1703 40.6867 28.0825C40.7042 27.9947 40.7393 27.9245 40.7569 27.8368C40.792 27.7315 40.8095 27.6086 40.8271 27.5033C40.8446 27.4331 40.8622 27.3453 40.8622 27.2576C40.8797 27.1347 40.8973 26.9943 40.9148 26.8715C40.9148 26.8012 40.9324 26.731 40.9324 26.6784C40.9499 26.4853 40.9499 26.2747 40.9499 26.0641C40.9499 25.4147 40.8271 24.7653 40.5989 24.1334C39.7564 21.8693 37.4923 19.9211 34.3857 19.6402C33.0167 19.5174 31.2966 19.57 29.4713 19.6929C29.4537 19.6929 29.4362 19.6929 29.4362 19.6929C28.4533 19.7631 27.4704 19.8509 26.5226 19.9737C13.9207 21.0093 12.5165 26.8715 26.5402 28.2054C28.19 27.8543 29.8574 27.556 31.5423 27.398C31.753 27.3804 31.9811 27.3453 32.1918 27.3453C32.104 27.4331 31.9987 27.5209 31.9109 27.6262C31.8934 27.6437 31.8758 27.6613 31.8583 27.6788C31.753 27.7666 31.6477 27.8719 31.5423 27.9596C31.5248 27.9772 31.5072 27.9947 31.4897 28.0123C31.3844 28.1001 31.2615 28.2054 31.1562 28.2931L31.1387 28.3107C31.0158 28.416 30.8929 28.5213 30.7525 28.6266C30.735 28.6442 30.6999 28.6617 30.6823 28.6793C30.5595 28.7846 30.4191 28.8899 30.2962 28.9952C30.2786 29.0127 30.2611 29.0127 30.2435 29.0303C30.1031 29.1356 29.9803 29.2409 29.8399 29.3462C29.8399 29.3462 29.8223 29.3462 29.8223 29.3638C29.6819 29.4691 29.5415 29.5744 29.3835 29.6972C29.366 29.7148 29.3484 29.7148 29.3309 29.7323C29.1904 29.8377 29.0325 29.943 28.8921 30.0658C27.1018 31.3646 25.3116 32.523 24.943 32.7687C24.9254 32.7863 24.9079 32.7863 24.8903 32.8039L24.8728 32.8214C24.3638 33.1724 23.925 33.6463 23.6442 34.208C23.3458 34.7696 23.1703 35.4015 23.1703 36.0684C23.1703 38.2448 24.9254 40 27.1018 40C27.7688 40 28.3831 39.8244 28.9272 39.5436C29.1378 39.4383 32.6832 37.2444 35.5441 34.7521C36.0004 34.3484 36.4392 33.9622 36.8604 33.5586C36.878 33.541 36.8955 33.5235 36.9131 33.5059C37.0535 33.3655 37.1939 33.2426 37.3343 33.1022C37.3519 33.0847 37.387 33.0496 37.4045 33.032C37.545 32.8916 37.6854 32.7687 37.8082 32.6283Z" fill="url(#paint20_radial)"/>
<path d="M37.8082 32.6283C37.8258 32.6108 37.8433 32.5757 37.8784 32.5581C38.0013 32.4177 38.1417 32.2949 38.247 32.1544C38.247 32.1544 38.247 32.1544 38.2646 32.1369C38.6331 31.7332 38.9842 31.312 39.2826 30.8907C39.3177 30.8381 39.3703 30.7854 39.4054 30.7328C39.4756 30.645 39.5283 30.5397 39.5985 30.452C39.6511 30.3817 39.7038 30.3115 39.7389 30.2238C39.7915 30.136 39.8442 30.0483 39.8969 29.9605C39.9495 29.8728 39.9846 29.8026 40.0373 29.7148C40.0899 29.627 40.125 29.5393 40.1777 29.4515C40.2303 29.3638 40.2654 29.276 40.3005 29.1882C40.3356 29.1005 40.3707 29.0127 40.4058 28.925C40.4409 28.8372 40.4761 28.7319 40.5112 28.6442C40.5463 28.5564 40.5638 28.4686 40.5989 28.3809C40.634 28.2756 40.6691 28.1703 40.6867 28.0825C40.7042 27.9947 40.7393 27.9245 40.7569 27.8368C40.792 27.7315 40.8095 27.6086 40.8271 27.5033C40.8446 27.4331 40.8622 27.3453 40.8622 27.2576C40.8797 27.1347 40.8973 26.9943 40.9148 26.8715C40.9148 26.8012 40.9324 26.731 40.9324 26.6784C40.9499 26.4853 40.9499 26.2747 40.9499 26.0641C40.9499 25.4147 40.8271 24.7653 40.5989 24.1334C39.7564 21.8693 37.4923 19.9211 34.3857 19.6402C33.0167 19.5174 31.2966 19.57 29.4713 19.6929C29.4537 19.6929 29.4362 19.6929 29.4362 19.6929C28.4533 19.7631 27.4704 19.8509 26.5226 19.9737C13.9207 21.0093 12.5165 26.8715 26.5402 28.2054C28.19 27.8543 29.8574 27.556 31.5423 27.398C31.753 27.3804 31.9811 27.3453 32.1918 27.3453C32.104 27.4331 31.9987 27.5209 31.9109 27.6262C31.8934 27.6437 31.8758 27.6613 31.8583 27.6788C31.753 27.7666 31.6477 27.8719 31.5423 27.9596C31.5248 27.9772 31.5072 27.9947 31.4897 28.0123C31.3844 28.1001 31.2615 28.2054 31.1562 28.2931L31.1387 28.3107C31.0158 28.416 30.8929 28.5213 30.7525 28.6266C30.735 28.6442 30.6999 28.6617 30.6823 28.6793C30.5595 28.7846 30.4191 28.8899 30.2962 28.9952C30.2786 29.0127 30.2611 29.0127 30.2435 29.0303C30.1031 29.1356 29.9803 29.2409 29.8399 29.3462C29.8399 29.3462 29.8223 29.3462 29.8223 29.3638C29.6819 29.4691 29.5415 29.5744 29.3835 29.6972C29.366 29.7148 29.3484 29.7148 29.3309 29.7323C29.1904 29.8377 29.0325 29.943 28.8921 30.0658C27.1018 31.3646 25.3116 32.523 24.943 32.7687C24.9254 32.7863 24.9079 32.7863 24.8903 32.8039L24.8728 32.8214C24.3638 33.1724 23.925 33.6463 23.6442 34.208C23.3458 34.7696 23.1703 35.4015 23.1703 36.0684C23.1703 38.2448 24.9254 40 27.1018 40C27.7688 40 28.3831 39.8244 28.9272 39.5436C29.1378 39.4383 32.6832 37.2444 35.5441 34.7521C36.0004 34.3484 36.4392 33.9622 36.8604 33.5586C36.878 33.541 36.8955 33.5235 36.9131 33.5059C37.0535 33.3655 37.1939 33.2426 37.3343 33.1022C37.3519 33.0847 37.387 33.0496 37.4045 33.032C37.545 32.8916 37.6854 32.7687 37.8082 32.6283Z" fill="url(#paint21_radial)"/>
<path d="M37.8082 32.6283C37.8258 32.6108 37.8433 32.5757 37.8784 32.5581C38.0013 32.4177 38.1417 32.2949 38.247 32.1544C38.247 32.1544 38.247 32.1544 38.2646 32.1369C38.6331 31.7332 38.9842 31.312 39.2826 30.8907C39.3177 30.8381 39.3703 30.7854 39.4054 30.7328C39.4756 30.645 39.5283 30.5397 39.5985 30.452C39.6511 30.3817 39.7038 30.3115 39.7389 30.2238C39.7915 30.136 39.8442 30.0483 39.8969 29.9605C39.9495 29.8728 39.9846 29.8026 40.0373 29.7148C40.0899 29.627 40.125 29.5393 40.1777 29.4515C40.2303 29.3638 40.2654 29.276 40.3005 29.1882C40.3356 29.1005 40.3707 29.0127 40.4058 28.925C40.4409 28.8372 40.4761 28.7319 40.5112 28.6442C40.5463 28.5564 40.5638 28.4686 40.5989 28.3809C40.634 28.2756 40.6691 28.1703 40.6867 28.0825C40.7042 27.9947 40.7393 27.9245 40.7569 27.8368C40.792 27.7315 40.8095 27.6086 40.8271 27.5033C40.8446 27.4331 40.8622 27.3453 40.8622 27.2576C40.8797 27.1347 40.8973 26.9943 40.9148 26.8715C40.9148 26.8012 40.9324 26.731 40.9324 26.6784C40.9499 26.4853 40.9499 26.2747 40.9499 26.0641C40.9499 25.4147 40.8271 24.7653 40.5989 24.1334C39.7564 21.8693 37.4923 19.9211 34.3857 19.6402C33.0167 19.5174 31.2966 19.57 29.4713 19.6929C29.4537 19.6929 29.4362 19.6929 29.4362 19.6929C28.4533 19.7631 27.4704 19.8509 26.5226 19.9737C13.9207 21.0093 12.5165 26.8715 26.5402 28.2054C28.19 27.8543 29.8574 27.556 31.5423 27.398C31.753 27.3804 31.9811 27.3453 32.1918 27.3453C32.104 27.4331 31.9987 27.5209 31.9109 27.6262C31.8934 27.6437 31.8758 27.6613 31.8583 27.6788C31.753 27.7666 31.6477 27.8719 31.5423 27.9596C31.5248 27.9772 31.5072 27.9947 31.4897 28.0123C31.3844 28.1001 31.2615 28.2054 31.1562 28.2931L31.1387 28.3107C31.0158 28.416 30.8929 28.5213 30.7525 28.6266C30.735 28.6442 30.6999 28.6617 30.6823 28.6793C30.5595 28.7846 30.4191 28.8899 30.2962 28.9952C30.2786 29.0127 30.2611 29.0127 30.2435 29.0303C30.1031 29.1356 29.9803 29.2409 29.8399 29.3462C29.8399 29.3462 29.8223 29.3462 29.8223 29.3638C29.6819 29.4691 29.5415 29.5744 29.3835 29.6972C29.366 29.7148 29.3484 29.7148 29.3309 29.7323C29.1904 29.8377 29.0325 29.943 28.8921 30.0658C27.1018 31.3646 25.3116 32.523 24.943 32.7687C24.9254 32.7863 24.9079 32.7863 24.8903 32.8039L24.8728 32.8214C24.3638 33.1724 23.925 33.6463 23.6442 34.208C23.3458 34.7696 23.1703 35.4015 23.1703 36.0684C23.1703 38.2448 24.9254 40 27.1018 40C27.7688 40 28.3831 39.8244 28.9272 39.5436C29.1378 39.4383 32.6832 37.2444 35.5441 34.7521C36.0004 34.3484 36.4392 33.9622 36.8604 33.5586C36.878 33.541 36.8955 33.5235 36.9131 33.5059C37.0535 33.3655 37.1939 33.2426 37.3343 33.1022C37.3519 33.0847 37.387 33.0496 37.4045 33.032C37.545 32.8916 37.6854 32.7687 37.8082 32.6283Z" fill="url(#paint22_radial)"/>
<path d="M42.5984 32.6285C41.8964 31.9264 41.1943 31.4525 38.8775 31.4525C38.8775 31.4525 38.8775 31.4525 38.86 31.4525C39.0004 31.277 39.1408 31.1015 39.2812 30.9084C39.3163 30.8558 39.369 30.8031 39.4041 30.7504C39.4743 30.6627 39.5269 30.5574 39.5971 30.4696C39.6498 30.3994 39.7024 30.3292 39.7375 30.2415C39.7902 30.1537 39.8429 30.0659 39.8955 29.9782C39.9482 29.8904 39.9833 29.8202 40.0359 29.7325C40.0886 29.6447 40.1237 29.5569 40.1763 29.4692C40.229 29.3814 40.2641 29.2937 40.2992 29.2059C40.3343 29.1182 40.3694 29.0304 40.4045 28.9426C40.4396 28.8549 40.4747 28.7496 40.5098 28.6618C40.5274 28.5916 40.5625 28.539 40.58 28.4688C37.2101 28.6267 33.8227 28.8022 30.4528 28.8724C30.4002 28.9075 30.3475 28.9602 30.2948 28.9953C30.2773 29.0128 29.0311 29.9431 28.8907 30.0484C27.1005 31.3472 25.3102 32.5056 24.9416 32.7513C24.9241 32.7689 24.9065 32.7689 24.889 32.7864L24.8714 32.804C24.3624 33.155 23.9237 33.6289 23.6428 34.1905C23.3445 34.7522 23.1689 35.384 23.1689 36.051C23.1689 38.2274 24.9241 39.9825 27.1005 39.9825C27.118 39.9825 27.1356 39.9825 27.1356 39.9825H27.1531C28.7503 39.9825 32.3484 39.1752 34.9284 38.789C37.9122 38.3502 39.6147 38.3853 41.3347 37.771C43.2654 37.0865 43.4234 35.0857 43.4234 34.7346C43.4234 34.3836 43.3005 33.3305 42.5984 32.6285Z" fill="url(#paint23_radial)"/>
<path d="M42.5984 32.6285C41.8964 31.9264 41.1943 31.4525 38.8775 31.4525C38.8775 31.4525 38.8775 31.4525 38.86 31.4525C39.0004 31.277 39.1408 31.1015 39.2812 30.9084C39.3163 30.8558 39.369 30.8031 39.4041 30.7504C39.4743 30.6627 39.5269 30.5574 39.5971 30.4696C39.6498 30.3994 39.7024 30.3292 39.7375 30.2415C39.7902 30.1537 39.8429 30.0659 39.8955 29.9782C39.9482 29.8904 39.9833 29.8202 40.0359 29.7325C40.0886 29.6447 40.1237 29.5569 40.1763 29.4692C40.229 29.3814 40.2641 29.2937 40.2992 29.2059C40.3343 29.1182 40.3694 29.0304 40.4045 28.9426C40.4396 28.8549 40.4747 28.7496 40.5098 28.6618C40.5274 28.5916 40.5625 28.539 40.58 28.4688C37.2101 28.6267 33.8227 28.8022 30.4528 28.8724C30.4002 28.9075 29.0311 29.9431 28.8907 30.0484C27.1005 31.3472 25.3102 32.5056 24.9416 32.7513C24.9241 32.7689 24.9065 32.7689 24.889 32.7864L24.8714 32.804C24.3624 33.155 23.9237 33.6289 23.6428 34.1905C23.3445 34.7522 23.1689 35.384 23.1689 36.051C23.1689 38.2274 24.9241 39.9825 27.1005 39.9825C27.118 39.9825 27.1356 39.9825 27.1356 39.9825H27.1531C28.7503 39.9825 32.3484 39.1752 34.9284 38.789C37.9122 38.3502 39.6147 38.3853 41.3347 37.771C43.2654 37.0865 43.4234 35.0857 43.4234 34.7346C43.4234 34.3836 43.3005 33.3305 42.5984 32.6285Z" fill="url(#paint24_radial)"/>
<path d="M15.116 8.23151C15.3793 9.8989 12.4307 11.7243 8.53424 12.321C4.63781 12.9178 1.28548 12.0753 1.0222 10.4079C0.758931 8.74051 3.70758 6.91515 7.60401 6.3184C11.5004 5.72165 14.8703 6.56412 15.116 8.23151Z" fill="url(#paint25_radial)"/>
<path d="M9.05602 8.93387C9.16133 9.93431 7.89762 10.8996 6.21268 11.0752C4.54529 11.2507 3.10607 10.5837 3.00076 9.56573C2.89545 8.56529 4.15916 7.59996 5.8441 7.42445C7.52904 7.24893 8.95071 7.93344 9.05602 8.93387Z" fill="url(#paint26_radial)"/>
<path d="M26.6097 6.3718C26.1533 5.91546 22.1405 5.01841 30.9513 0.612986C33.233 -0.52786 36.5087 0.913287 37.0177 2.29985C37.5092 3.68642 35.9822 5.51178 33.5952 6.3718C31.2082 7.23182 27.066 6.82814 26.6097 6.3718Z" fill="url(#paint27_radial)"/>
<path opacity="0.8" d="M32.8202 2.47492C33.7153 3.72108 28.3797 9.02163 20.9203 14.2871C13.4609 19.5525 6.70361 22.8171 5.80848 21.5534C4.94846 20.3072 10.2666 15.0067 17.7259 9.74124C25.1853 4.47579 31.9426 1.21122 32.8202 2.47492Z" fill="url(#paint28_radial)"/>
<path opacity="0.8" d="M35.1217 3.2998C35.8588 6.09049 29.1542 12.0931 23.643 15.5683C18.1318 19.0435 8.812 22.6942 7.12706 20.8688C6.16173 19.8158 8.05729 17.1304 9.12793 16.0773C11.1815 14.0062 15.4816 11.0576 19.378 8.5828C25.9071 4.4582 29.5052 2.19406 32.0151 1.82548C34.1388 1.5271 34.8233 2.21161 35.1217 3.2998Z" fill="url(#paint29_radial)"/>
<path d="M7.95171 19.1139C8.86439 19.5527 8.82929 21.5009 7.86395 23.4316C6.89862 25.3622 5.40675 26.5733 4.49407 26.1345C3.58139 25.6957 3.19526 23.572 4.14304 21.6238C5.09082 19.6756 7.03903 18.6576 7.95171 19.1139Z" fill="url(#paint30_radial)"/>
<path opacity="0.47" d="M38.9493 25.7129C38.3175 26.0815 37.1591 25.2917 36.3693 23.9402C35.5795 22.5888 35.439 21.2022 36.0709 20.8336C36.7027 20.465 38.142 21.0618 38.9318 22.4133C39.7392 23.7472 39.5812 25.3268 38.9493 25.7129Z" fill="url(#paint31_radial)"/>
<path d="M26.8366 8.09111C27.5035 9.03889 25.959 11.2504 23.3965 13.0406C20.834 14.8309 18.2188 15.4978 17.5694 14.5501C16.9024 13.6023 18.1135 10.9696 20.676 9.17931C23.2385 7.38905 26.1696 7.14333 26.8366 8.09111Z" fill="url(#paint32_radial)"/>
<path d="M39.7784 23.6593C40.6535 24.7484 38.3419 29.0389 35.2874 31.6133C31.1927 35.0457 28.0721 34.3361 27.1971 33.247C26.322 32.1578 30.2681 29.204 33.2731 26.5306C36.2616 23.8573 38.9033 22.5536 39.7784 23.6593Z" fill="url(#paint33_radial)"/>
<path d="M42.7225 34.6469C42.3188 35.191 41.2131 35.033 40.2302 34.3134C39.2649 33.5938 38.791 32.5583 39.1947 32.0317C39.5983 31.5052 40.7041 31.6456 41.687 32.3652C42.6699 33.0848 43.1262 34.1204 42.7225 34.6469Z" fill="url(#paint34_radial)"/>
<path d="M32.2081 27.3631C31.9975 27.3807 31.7693 27.3982 31.5587 27.4158C27.1884 27.8546 22.976 29.1358 18.6408 30.066C17.9212 30.224 17.2016 30.3644 16.482 30.4873C16.482 30.4873 16.3415 30.5224 15.5693 30.6452C15.5517 30.6452 15.5342 30.6452 15.5166 30.6452C12.568 31.1542 10.7075 30.3995 10.7075 29.1007C10.7075 27.5211 11.9888 25.4325 18.6934 21.2552C18.9392 21.2025 20.6768 20.8515 21.9054 20.676C24.2222 20.2723 26.8022 19.9213 29.4525 19.7282C29.4701 19.7282 29.4876 19.7282 29.4876 19.7282C32.875 19.4649 35.1392 20.4127 35.2269 22.0275C35.3147 23.5018 34.1036 25.4851 32.2081 27.3631Z" fill="url(#paint35_radial)"/>
<path d="M32.2081 27.3631C31.9975 27.3807 31.7693 27.3982 31.5587 27.4158C26.3108 27.9423 24.6434 28.7672 18.6408 30.066C17.9212 30.224 17.2016 30.3644 16.482 30.4873C16.482 30.4873 16.3415 30.5224 15.5693 30.6452C15.5517 30.6452 15.5342 30.6452 15.5166 30.6452C12.568 31.1542 10.7075 30.3995 10.7075 29.1007C10.7075 27.5211 11.9888 25.4325 18.6934 21.2552C18.9392 21.2025 20.6768 20.8515 21.9054 20.676C24.2222 20.2723 26.8022 19.9213 29.4525 19.7282C29.4701 19.7282 29.4876 19.7282 29.4876 19.7282C32.875 19.4649 35.1392 20.4127 35.2269 22.0275C35.3147 23.5018 34.1036 25.4851 32.2081 27.3631Z" fill="url(#paint36_radial)"/>
<defs>
<linearGradient id="paint0_linear" x1="14.8373" y1="3.00292" x2="18.8872" y2="11.3409" gradientUnits="userSpaceOnUse">
<stop stop-color="#303AFF"/>
<stop offset="0.905" stop-color="#0008AA"/>
</linearGradient>
<radialGradient id="paint1_radial" cx="0" cy="0" r="1" gradientUnits="userSpaceOnUse" gradientTransform="translate(19.1895 10.7844) rotate(162.375) scale(16.2848 6.75937)">
<stop stop-color="#0008AA"/>
<stop offset="0.1892" stop-color="#030BB0" stop-opacity="0.8108"/>
<stop offset="0.4321" stop-color="#0C15C0" stop-opacity="0.5679"/>
<stop offset="0.7041" stop-color="#1B24DA" stop-opacity="0.2959"/>
<stop offset="0.9957" stop-color="#303AFE" stop-opacity="0.01"/>
<stop offset="1" stop-color="#303AFF" stop-opacity="0"/>
</radialGradient>
<radialGradient id="paint2_radial" cx="0" cy="0" r="1" gradientUnits="userSpaceOnUse" gradientTransform="translate(11.7535 0.985439) rotate(-8.23301) scale(34.462 11.1809)">
<stop stop-color="#21AFF0"/>
<stop offset="0.1405" stop-color="#229BEC" stop-opacity="0.8595"/>
<stop offset="0.7297" stop-color="#254BDF" stop-opacity="0.2703"/>
<stop offset="1" stop-color="#262CD9" stop-opacity="0"/>
</radialGradient>
<radialGradient id="paint3_radial" cx="0" cy="0" r="1" gradientUnits="userSpaceOnUse" gradientTransform="translate(3.7725 9.1249) rotate(-17.6432) scale(9.47945 7.31292)">
<stop stop-color="#21AFF0"/>
<stop offset="1" stop-color="#262CD9" stop-opacity="0"/>
</radialGradient>
<radialGradient id="paint4_radial" cx="0" cy="0" r="1" gradientUnits="userSpaceOnUse" gradientTransform="translate(29.338 37.3143) scale(14.2815)">
<stop offset="0.156" stop-color="#FFC723"/>
<stop offset="0.5555" stop-color="#FFCB20"/>
<stop offset="0.9346" stop-color="#FDD615"/>
<stop offset="1" stop-color="#FDD913"/>
</radialGradient>
<radialGradient id="paint5_radial" cx="0" cy="0" r="1" gradientUnits="userSpaceOnUse" gradientTransform="translate(36.4892 32.7096) rotate(132.897) scale(7.64193 5.05082)">
<stop stop-color="#DB1E1E"/>
<stop offset="0.9996" stop-color="#FDD913" stop-opacity="0"/>
</radialGradient>
<linearGradient id="paint6_linear" x1="33.3791" y1="27.2542" x2="29.3672" y2="39.8062" gradientUnits="userSpaceOnUse">
<stop stop-color="#FF394F"/>
<stop offset="0.1552" stop-color="#FF484A"/>
<stop offset="0.4556" stop-color="#FF703E"/>
<stop offset="0.8674" stop-color="#FFB12A"/>
<stop offset="1" stop-color="#FFC723"/>
</linearGradient>
<linearGradient id="paint7_linear" x1="16.3902" y1="23.5945" x2="32.5104" y2="28.9944" gradientUnits="userSpaceOnUse">
<stop stop-color="#9812F5"/>
<stop offset="1" stop-color="#FF394F"/>
</linearGradient>
<linearGradient id="paint8_linear" x1="17.1828" y1="20.7306" x2="31.1192" y2="-0.352667" gradientUnits="userSpaceOnUse">
<stop stop-color="#9812F5"/>
<stop offset="0.556" stop-color="#5C29FB"/>
<stop offset="1" stop-color="#303AFF"/>
</linearGradient>
<radialGradient id="paint9_radial" cx="0" cy="0" r="1" gradientUnits="userSpaceOnUse" gradientTransform="translate(31.1758 1.09727) scale(9.22938)">
<stop stop-color="#303AFF"/>
<stop offset="1" stop-color="#262CD9" stop-opacity="0"/>
</radialGradient>
<radialGradient id="paint10_radial" cx="0" cy="0" r="1" gradientUnits="userSpaceOnUse" gradientTransform="translate(22.9438 22.1119) rotate(145.318) scale(22.1098 9.46977)">
<stop stop-color="#9812F5"/>
<stop offset="0.2972" stop-color="#6F22F9" stop-opacity="0.7028"/>
<stop offset="0.5942" stop-color="#4D2FFC" stop-opacity="0.4058"/>
<stop offset="0.8388" stop-color="#3837FE" stop-opacity="0.1612"/>
<stop offset="1" stop-color="#303AFF" stop-opacity="0"/>
</radialGradient>
<radialGradient id="paint11_radial" cx="0" cy="0" r="1" gradientUnits="userSpaceOnUse" gradientTransform="translate(32.4607 13.7528) rotate(145.318) scale(24.0707 10.3096)">
<stop stop-color="#1D21A3"/>
<stop offset="0.0430984" stop-color="#1E22A7" stop-opacity="0.9569"/>
<stop offset="0.6925" stop-color="#2B33E6" stop-opacity="0.3075"/>
<stop offset="1" stop-color="#303AFF" stop-opacity="0"/>
</radialGradient>
<radialGradient id="paint12_radial" cx="0" cy="0" r="1" gradientUnits="userSpaceOnUse" gradientTransform="translate(1.62904 21.2354) rotate(-41.1563) scale(20.0908 7.21195)">
<stop stop-color="#FFD6F7"/>
<stop offset="0.3326" stop-color="#FF31F7" stop-opacity="0.4"/>
<stop offset="0.4452" stop-color="#FA31F7" stop-opacity="0.3325"/>
<stop offset="0.5705" stop-color="#ED31F7" stop-opacity="0.2574"/>
<stop offset="0.7018" stop-color="#D731F8" stop-opacity="0.1787"/>
<stop offset="0.8374" stop-color="#B830F8" stop-opacity="0.0974656"/>
<stop offset="0.9749" stop-color="#9030F9" stop-opacity="0.0150295"/>
<stop offset="1" stop-color="#8830F9" stop-opacity="0"/>
</radialGradient>
<linearGradient id="paint13_linear" x1="17.0533" y1="22.7947" x2="31.5059" y2="29.2666" gradientUnits="userSpaceOnUse">
<stop stop-color="#6C00B0"/>
<stop offset="0.526" stop-color="#AF0087"/>
<stop offset="1" stop-color="#E20019"/>
</linearGradient>
<radialGradient id="paint14_radial" cx="0" cy="0" r="1" gradientUnits="userSpaceOnUse" gradientTransform="translate(12.4296 29.6126) rotate(-176.36) scale(15.1394 9.44471)">
<stop offset="0.0267592" stop-color="#7000AD"/>
<stop offset="1" stop-color="#9812F5" stop-opacity="0"/>
</radialGradient>
<linearGradient id="paint15_linear" x1="14.267" y1="35.5577" x2="16.4508" y2="29.7211" gradientUnits="userSpaceOnUse">
<stop offset="0.1812" stop-color="#DE12F5"/>
<stop offset="0.3413" stop-color="#C012F5" stop-opacity="0.7402"/>
<stop offset="0.5042" stop-color="#AA12F5" stop-opacity="0.4761"/>
<stop offset="0.6595" stop-color="#9D12F5" stop-opacity="0.2243"/>
<stop offset="0.7978" stop-color="#9812F5" stop-opacity="0"/>
</linearGradient>
<radialGradient id="paint16_radial" cx="0" cy="0" r="1" gradientUnits="userSpaceOnUse" gradientTransform="translate(34.3072 -1.02544) rotate(175.878) scale(22.991 7.37399)">
<stop offset="0.1244" stop-color="#26C6DA" stop-opacity="0.5"/>
<stop offset="0.2794" stop-color="#27B3DF" stop-opacity="0.4115"/>
<stop offset="0.5937" stop-color="#2B82EC" stop-opacity="0.232"/>
<stop offset="1" stop-color="#303AFF" stop-opacity="0"/>
</radialGradient>
<radialGradient id="paint17_radial" cx="0" cy="0" r="1" gradientUnits="userSpaceOnUse" gradientTransform="translate(0.172158 23.3513) rotate(-41.1563) scale(14.4663 7.54172)">
<stop stop-color="#FFD6F7"/>
<stop offset="0.0340273" stop-color="#FFBDF7"/>
<stop offset="0.1208" stop-color="#FF81F7"/>
<stop offset="0.1947" stop-color="#FF56F7"/>
<stop offset="0.2521" stop-color="#FF3BF7"/>
<stop offset="0.286" stop-color="#FF31F7"/>
<stop offset="1" stop-color="#8830F9" stop-opacity="0"/>
</radialGradient>
<radialGradient id="paint18_radial" cx="0" cy="0" r="1" gradientUnits="userSpaceOnUse" gradientTransform="translate(34.3413 20.2949) rotate(178.315) scale(9.19928 4.58491)">
<stop offset="0.00360624" stop-color="#FF394F"/>
<stop offset="0.6504" stop-color="#EA1129" stop-opacity="0.3508"/>
<stop offset="1" stop-color="#E20019" stop-opacity="0"/>
</radialGradient>
<radialGradient id="paint19_radial" cx="0" cy="0" r="1" gradientUnits="userSpaceOnUse" gradientTransform="translate(34.3413 20.2949) rotate(178.315) scale(9.19928 4.58491)">
<stop offset="0.00360624" stop-color="#FF394F"/>
<stop offset="0.3037" stop-color="#F4233B" stop-opacity="0.6989"/>
<stop offset="0.7392" stop-color="#E70A22" stop-opacity="0.2618"/>
<stop offset="1" stop-color="#E20019" stop-opacity="0"/>
</radialGradient>
<radialGradient id="paint20_radial" cx="0" cy="0" r="1" gradientUnits="userSpaceOnUse" gradientTransform="translate(38.8999 16.2889) rotate(-147.201) scale(16.8465 9.0882)">
<stop offset="0.2085" stop-color="#FAEC03"/>
<stop offset="0.3157" stop-color="#FBC812" stop-opacity="0.8646"/>
<stop offset="0.4829" stop-color="#FC9528" stop-opacity="0.6533"/>
<stop offset="0.6405" stop-color="#FE6D39" stop-opacity="0.4542"/>
<stop offset="0.784" stop-color="#FE5145" stop-opacity="0.2729"/>
<stop offset="0.9085" stop-color="#FF3F4C" stop-opacity="0.1156"/>
<stop offset="1" stop-color="#FF394F" stop-opacity="0"/>
</radialGradient>
<radialGradient id="paint21_radial" cx="0" cy="0" r="1" gradientUnits="userSpaceOnUse" gradientTransform="translate(37.9898 17.0067) rotate(-147.201) scale(16.8465 9.0882)">
<stop offset="0.1284" stop-color="#FAEC03"/>
<stop offset="0.2385" stop-color="#FADD09" stop-opacity="0.8737"/>
<stop offset="0.4499" stop-color="#FCB61A" stop-opacity="0.6311"/>
<stop offset="0.7383" stop-color="#FD7734" stop-opacity="0.3002"/>
<stop offset="1" stop-color="#FF394F" stop-opacity="0"/>
</radialGradient>
<radialGradient id="paint22_radial" cx="0" cy="0" r="1" gradientUnits="userSpaceOnUse" gradientTransform="translate(38.9942 32.5198) rotate(136.134) scale(11.2216 7.54481)">
<stop stop-color="#E20019"/>
<stop offset="0.063065" stop-color="#E61027"/>
<stop offset="0.2109" stop-color="#EE2F44"/>
<stop offset="0.3548" stop-color="#F44558"/>
<stop offset="0.4918" stop-color="#F85265"/>
<stop offset="0.6145" stop-color="#F95769"/>
<stop offset="1" stop-color="#FF394F" stop-opacity="0"/>
</radialGradient>
<radialGradient id="paint23_radial" cx="0" cy="0" r="1" gradientUnits="userSpaceOnUse" gradientTransform="translate(29.4617 40.3334) scale(7.87889)">
<stop stop-color="#FEC121"/>
<stop offset="0.2473" stop-color="#FEB027" stop-opacity="0.7694"/>
<stop offset="0.9992" stop-color="#FF783C" stop-opacity="0"/>
</radialGradient>
<radialGradient id="paint24_radial" cx="0" cy="0" r="1" gradientUnits="userSpaceOnUse" gradientTransform="translate(33.7299 43.4502) scale(7.94861)">
<stop stop-color="#F95769"/>
<stop offset="0.9992" stop-color="#FF783C" stop-opacity="0"/>
</radialGradient>
<radialGradient id="paint25_radial" cx="0" cy="0" r="1" gradientUnits="userSpaceOnUse" gradientTransform="translate(7.45416 9.02731) rotate(-9.91405) scale(7.0163 2.85867)">
<stop stop-color="#21AFF0" stop-opacity="0.4"/>
<stop offset="0.9996" stop-color="#2277EA" stop-opacity="0"/>
</radialGradient>
<radialGradient id="paint26_radial" cx="0" cy="0" r="1" gradientUnits="userSpaceOnUse" gradientTransform="translate(5.76359 9.05981) rotate(-7.54496) scale(2.99569 1.72134)">
<stop stop-color="#21AFF0" stop-opacity="0.4"/>
<stop offset="0.9996" stop-color="#2277EA" stop-opacity="0"/>
</radialGradient>
<radialGradient id="paint27_radial" cx="0" cy="0" r="1" gradientUnits="userSpaceOnUse" gradientTransform="translate(33.1845 1.53725) rotate(154.334) scale(4.19918 2.06963)">
<stop stop-color="#21AFF0" stop-opacity="0.4"/>
<stop offset="0.9996" stop-color="#2277EA" stop-opacity="0"/>
</radialGradient>
<radialGradient id="paint28_radial" cx="0" cy="0" r="1" gradientUnits="userSpaceOnUse" gradientTransform="translate(18.7706 11.9345) rotate(144.583) scale(15.805 2.93692)">
<stop offset="0.00196888" stop-color="#EB71F7" stop-opacity="0.2"/>
<stop offset="1" stop-color="#8830F9" stop-opacity="0"/>
</radialGradient>
<radialGradient id="paint29_radial" cx="0" cy="0" r="1" gradientUnits="userSpaceOnUse" gradientTransform="translate(21.5592 11.3921) rotate(144.858) scale(14.7558 4.42431)">
<stop offset="0.00275643" stop-color="#EB71F7" stop-opacity="0.7"/>
<stop offset="1" stop-color="#8830F9" stop-opacity="0"/>
</radialGradient>
<radialGradient id="paint30_radial" cx="0" cy="0" r="1" gradientUnits="userSpaceOnUse" gradientTransform="translate(5.70255 22.7346) rotate(-65.0079) scale(3.89365 1.7428)">
<stop offset="0.000393775" stop-color="#E97AF4" stop-opacity="0.5"/>
<stop offset="0.1801" stop-color="#E575F4" stop-opacity="0.4101"/>
<stop offset="0.383" stop-color="#DB68F4" stop-opacity="0.3086"/>
<stop offset="0.5973" stop-color="#C951F4" stop-opacity="0.2014"/>
<stop offset="0.8179" stop-color="#B132F5" stop-opacity="0.0910648"/>
<stop offset="1" stop-color="#9812F5" stop-opacity="0"/>
</radialGradient>
<radialGradient id="paint31_radial" cx="0" cy="0" r="1" gradientUnits="userSpaceOnUse" gradientTransform="translate(37.6478 22.905) rotate(58.3106) scale(2.81426 1.2595)">
<stop offset="0.00444178" stop-color="#FAAE1F" stop-opacity="0.5"/>
<stop offset="0.3508" stop-color="#FAAC21" stop-opacity="0.3261"/>
<stop offset="0.5379" stop-color="#FAA428" stop-opacity="0.2321"/>
<stop offset="0.687" stop-color="#FA9633" stop-opacity="0.1572"/>
<stop offset="0.8161" stop-color="#FA8344" stop-opacity="0.0923792"/>
<stop offset="0.931" stop-color="#F96A59" stop-opacity="0.0346472"/>
<stop offset="1" stop-color="#F95769" stop-opacity="0"/>
</radialGradient>
<radialGradient id="paint32_radial" cx="0" cy="0" r="1" gradientUnits="userSpaceOnUse" gradientTransform="translate(21.513 11.2164) rotate(-35.7328) scale(5.62385 1.99243)">
<stop offset="0.000393775" stop-color="#E97AF4" stop-opacity="0.2"/>
<stop offset="0.1801" stop-color="#E575F4" stop-opacity="0.164"/>
<stop offset="0.383" stop-color="#DB68F4" stop-opacity="0.1234"/>
<stop offset="0.5973" stop-color="#C951F4" stop-opacity="0.0805758"/>
<stop offset="0.8179" stop-color="#B132F5" stop-opacity="0.0364259"/>
<stop offset="1" stop-color="#9812F5" stop-opacity="0"/>
</radialGradient>
<radialGradient id="paint33_radial" cx="0" cy="0" r="1" gradientUnits="userSpaceOnUse" gradientTransform="translate(33.7481 29.405) rotate(140.848) scale(6.94185 3.22141)">
<stop offset="0.1037" stop-color="#FAAE1F" stop-opacity="0.8"/>
<stop offset="0.3385" stop-color="#FB9828" stop-opacity="0.5904"/>
<stop offset="0.8269" stop-color="#FE5E41" stop-opacity="0.1545"/>
<stop offset="1" stop-color="#FF484A" stop-opacity="0"/>
</radialGradient>
<radialGradient id="paint34_radial" cx="0" cy="0" r="1" gradientUnits="userSpaceOnUse" gradientTransform="translate(41.3353 33.4842) rotate(35.2972) scale(1.68211 1.42259)">
<stop stop-color="#FAEC03" stop-opacity="0.83"/>
<stop offset="0.9996" stop-color="#FDCF16" stop-opacity="0"/>
</radialGradient>
<radialGradient id="paint35_radial" cx="0" cy="0" r="1" gradientUnits="userSpaceOnUse" gradientTransform="translate(16.8179 20.0237) rotate(147.624) scale(14.1173 8.22216)">
<stop stop-color="#4E0080"/>
<stop offset="0.01514" stop-color="#4C007C"/>
<stop offset="0.0273752" stop-color="#460073"/>
<stop offset="0.2002" stop-color="#480177" stop-opacity="0.8223"/>
<stop offset="0.3708" stop-color="#500283" stop-opacity="0.6469"/>
<stop offset="0.5404" stop-color="#5C0597" stop-opacity="0.4725"/>
<stop offset="0.7097" stop-color="#6E09B2" stop-opacity="0.2985"/>
<stop offset="0.877" stop-color="#840ED6" stop-opacity="0.1265"/>
<stop offset="1" stop-color="#9812F5" stop-opacity="0"/>
</radialGradient>
<radialGradient id="paint36_radial" cx="0" cy="0" r="1" gradientUnits="userSpaceOnUse" gradientTransform="translate(32.2441 27.6398) rotate(162.71) scale(12.22 5.1182)">
<stop stop-color="#9E0012"/>
<stop offset="0.2105" stop-color="#AD0B1B" stop-opacity="0.7895"/>
<stop offset="0.6129" stop-color="#D42831" stop-opacity="0.3871"/>
<stop offset="1" stop-color="#FF484A" stop-opacity="0"/>
</radialGradient>
</defs>
</svg>
