<svg width="57" height="99" viewBox="0 0 57 99" fill="none" xmlns="http://www.w3.org/2000/svg">
<path d="M6.7128 55.0613C6.97068 53.4863 7.69272 51.9668 8.90669 50.7529C10.6562 49.0033 13.0167 48.2813 15.2979 48.5154L2.95584 36.1733C-0.130669 33.0868 -0.130669 28.0365 2.95584 24.9539C6.04235 21.8674 11.0926 21.8674 14.1752 24.9539L40.8667 51.6455L40.8628 47.6743C40.8628 43.2984 42.6361 39.3352 45.5044 36.4669C47.5793 34.392 50.2294 32.9003 53.1929 32.2259C53.3952 32.1703 53.6134 32.1505 53.8396 32.1505C55.4344 32.1465 56.7277 33.4399 56.7277 35.0387L56.7317 72.8226C56.7317 72.8266 56.7317 72.8385 56.7317 72.8504V73.4732L56.7039 73.4494C56.5571 79.8129 54.0736 86.1366 49.2138 90.9925C39.1806 101.026 22.9229 101.026 12.8898 90.9925L3.66201 81.7647C1.59904 79.7018 0.924614 76.7779 1.62285 74.1357L6.7128 55.0613ZM6.46684 78.9559L15.6946 88.1837C24.1647 96.6538 37.9389 96.6538 46.405 88.1837C50.3524 84.2363 52.6018 78.9678 52.7367 73.3542L52.7605 36.4629C51.0943 37.05 49.5748 38.0101 48.3132 39.2757C46.0678 41.5211 44.83 44.5005 44.834 47.6783V55.0097C44.834 55.6921 44.4333 56.3149 43.8104 56.5926C42.3584 57.2433 40.6089 56.9933 39.4147 55.7992L11.3703 27.7548C9.82312 26.2076 7.30392 26.2076 5.76067 27.7548C4.21345 29.302 4.21345 31.8212 5.76067 33.3645L22.0382 49.642C22.6293 50.2332 22.788 51.1377 22.427 51.8954C22.066 52.6532 21.2686 53.1015 20.4355 53.0182L14.8932 52.4588C14.1831 52.3874 12.8303 52.435 11.7076 53.5577C10.9855 54.2797 10.7197 55.1287 10.6245 55.7079L5.47503 75.1553C5.10608 76.5478 5.479 77.9681 6.46684 78.9559Z" fill="white"/>
<path d="M32.9998 3.05176e-05L35.8046 2.80486L28.6239 9.98556H48.8013V13.9528H28.6239L35.7887 21.1216L32.9839 23.9264L21.0306 11.9692L32.9998 3.05176e-05Z" fill="white"/>
</svg>
