<svg width="19" height="20" viewBox="0 0 19 20" fill="none" xmlns="http://www.w3.org/2000/svg">
<g clip-path="url(#clip0)">
<path d="M18.9999 10.2297C18.9999 9.54995 18.9465 8.8665 18.8325 8.19775H9.69043V12.0486H14.9257C14.7084 13.2905 14.0104 14.3892 12.9883 15.0873V17.586H16.1116C17.9457 15.8443 18.9999 13.2722 18.9999 10.2297Z" fill="#4285F4"/>
<path d="M9.68961 20.0003C12.3037 20.0003 14.5082 19.1148 16.1144 17.5862L12.991 15.0876C12.122 15.6975 11.0002 16.0429 9.69318 16.0429C7.16459 16.0429 5.02063 14.2829 4.25138 11.9165H1.02832V14.4923C2.67368 17.8691 6.02495 20.0003 9.68961 20.0003Z" fill="#34A853"/>
<path d="M4.24856 11.9163C3.84257 10.6743 3.84257 9.32946 4.24856 8.0875V5.51172H1.02907C-0.345627 8.33736 -0.345627 11.6664 1.02907 14.492L4.24856 11.9163Z" fill="#FBBC04"/>
<path d="M9.68962 3.95756C11.0714 3.93552 12.407 4.47199 13.4077 5.45674L16.1749 2.60169C14.4227 0.904099 12.0971 -0.02921 9.68962 0.000185607C6.02495 0.000185607 2.67368 2.13136 1.02832 5.51185L4.24781 8.08764C5.01351 5.71762 7.16103 3.95756 9.68962 3.95756Z" fill="#EA4335"/>
</g>
<defs>
<clipPath id="clip0">
<rect width="19" height="20" fill="white"/>
</clipPath>
</defs>
</svg>
