<svg width="57" height="99" viewBox="0 0 57 99" fill="none" xmlns="http://www.w3.org/2000/svg">
<path d="M50.6932 55.0613C50.4353 53.4863 49.7133 51.9668 48.4993 50.7528C46.7498 49.0033 44.3893 48.2813 42.1081 48.5153L54.4502 36.1733C57.5367 33.0867 57.5367 28.0365 54.4502 24.9539C51.3637 21.8674 46.3134 21.8674 43.2308 24.9539L16.5393 51.6455L16.5433 47.6743C16.5433 43.2984 14.7699 39.3351 11.9016 36.4668C9.82672 34.392 7.17661 32.9003 4.21309 32.2259C4.01076 32.1703 3.79256 32.1505 3.56643 32.1505C1.9716 32.1465 0.678283 33.4398 0.678283 35.0386L0.674316 72.8226C0.674316 72.8265 0.674316 72.8384 0.674316 72.8503V73.4732L0.702087 73.4494C0.848875 79.8128 3.33236 86.1366 8.19222 90.9925C18.2254 101.026 34.4831 101.026 44.5162 90.9925L53.744 81.7647C55.807 79.7017 56.4814 76.7779 55.7832 74.1357L50.6932 55.0613ZM50.9392 78.9559L41.7114 88.1837C33.2413 96.6537 19.4671 96.6537 11.001 88.1837C7.05363 84.2363 4.80421 78.9678 4.66932 73.3542L4.64552 36.4629C6.31176 37.05 7.8312 38.0101 9.09278 39.2756C11.3382 41.5211 12.576 44.5005 12.572 47.6782V55.0097C12.572 55.692 12.9727 56.3149 13.5956 56.5926C15.0476 57.2432 16.7972 56.9933 17.9913 55.7992L46.0357 27.7548C47.5829 26.2076 50.1021 26.2076 51.6453 27.7548C53.1926 29.302 53.1926 31.8212 51.6453 33.3645L35.3678 49.642C34.7767 50.2331 34.618 51.1377 34.979 51.8954C35.34 52.6531 36.1374 53.1014 36.9705 53.0181L42.5128 52.4587C43.2229 52.3873 44.5757 52.4349 45.6985 53.5577C46.4205 54.2797 46.6863 55.1287 46.7815 55.7079L51.931 75.1553C52.2999 76.5478 51.927 77.9681 50.9392 78.9559Z" fill="white"/>
<path d="M24.4062 1.52588e-05L21.6014 2.80485L28.7821 9.98554H8.60474V13.9528H28.7821L21.6173 21.1216L24.4221 23.9264L36.3754 11.9692L24.4062 1.52588e-05Z" fill="white"/>
</svg>
